<svg width="100" height="24" viewBox="0 0 100 24" fill="none" xmlns="http://www.w3.org/2000/svg">
<g clip-path="url(#clip0_1_13)">
<path d="M8.6689 18.6261H13.3229V12.9848C13.3229 12.5795 13.0689 12.3202 12.6592 12.3202H9.34898C8.93929 12.3202 8.6689 12.5795 8.6689 12.9848V18.6261ZM5.44879 20.6848H16.543C18.1244 20.6848 19.0831 19.7446 19.0831 18.2775V9.18338L16.1743 7.19757V17.0942C16.1743 17.5481 15.9121 17.8075 15.4615 17.8075H6.53035C6.0797 17.8075 5.8175 17.5481 5.8175 17.0942V7.19757L2.90875 9.18338V18.2775C2.90875 19.7446 3.85922 20.6848 5.44879 20.6848ZM0 10.9422C0 11.7528 0.573557 12.2958 1.44209 12.2958C1.8108 12.2958 2.21229 12.1256 2.54004 11.8501L10.3896 5.34144C10.7911 5.00912 11.2171 5.00912 11.6268 5.34144L19.4518 11.8501C19.7877 12.1256 20.1892 12.2958 20.5579 12.2958C21.4183 12.2958 22 11.7609 22 10.9422C22 10.5289 21.7788 10.0912 21.4101 9.78318L12.8886 2.69909C11.7579 1.76697 10.2585 1.76697 9.12775 2.69909L0.589944 9.79129C0.221229 10.0993 0 10.537 0 10.9422ZM15.5926 5.78723L19.0831 8.66464V3.98784C19.0831 3.58257 18.8209 3.3232 18.4112 3.3232H16.2726C15.8629 3.3232 15.5926 3.58257 15.5926 3.98784V5.78723Z" fill="black" fill-opacity="0.85"/>
</g>
<path d="M27.8807 10V2.72727H32.2415V3.50852H28.7614V5.96591H31.9148V6.74716H28.7614V10H27.8807ZM35.5227 10.1136C34.9972 10.1136 34.5438 9.99763 34.1626 9.76562C33.7839 9.53125 33.4915 9.20455 33.2855 8.78551C33.0819 8.36411 32.9801 7.87405 32.9801 7.31534C32.9801 6.75663 33.0819 6.2642 33.2855 5.83807C33.4915 5.40956 33.7779 5.07576 34.1449 4.83665C34.5142 4.59517 34.9451 4.47443 35.4375 4.47443C35.7216 4.47443 36.0021 4.52178 36.2791 4.61648C36.5561 4.71117 36.8082 4.86506 37.0355 5.07812C37.2628 5.28883 37.4439 5.56818 37.5788 5.91619C37.7138 6.2642 37.7812 6.69271 37.7812 7.2017V7.55682H33.5767V6.83239H36.929C36.929 6.52462 36.8674 6.25 36.7443 6.00852C36.6236 5.76705 36.4508 5.57647 36.2259 5.43679C36.0033 5.29711 35.7405 5.22727 35.4375 5.22727C35.1037 5.22727 34.8149 5.31013 34.571 5.47585C34.3295 5.6392 34.1437 5.85227 34.0135 6.11506C33.8833 6.37784 33.8182 6.65956 33.8182 6.96023V7.44318C33.8182 7.85511 33.8892 8.20431 34.0312 8.49077C34.1757 8.77486 34.3757 8.99148 34.6314 9.14062C34.8871 9.28741 35.1842 9.3608 35.5227 9.3608C35.7429 9.3608 35.9418 9.33002 36.1193 9.26847C36.2992 9.20455 36.4543 9.10985 36.5845 8.98438C36.7147 8.85653 36.8153 8.69792 36.8864 8.50852L37.696 8.7358C37.6108 9.01042 37.4676 9.25189 37.2663 9.46023C37.0651 9.66619 36.8165 9.82718 36.5206 9.94318C36.2247 10.0568 35.892 10.1136 35.5227 10.1136ZM39.0561 10V4.54545H39.8658V5.36932H39.9226C40.022 5.09943 40.2019 4.88045 40.4624 4.71236C40.7228 4.54427 41.0163 4.46023 41.343 4.46023C41.4046 4.46023 41.4815 4.46141 41.5739 4.46378C41.6662 4.46615 41.736 4.4697 41.7834 4.47443V5.3267C41.755 5.3196 41.6899 5.30895 41.5881 5.29474C41.4886 5.27817 41.3833 5.26989 41.272 5.26989C41.0069 5.26989 40.7701 5.32552 40.5618 5.43679C40.3558 5.54569 40.1925 5.69721 40.0717 5.89134C39.9534 6.0831 39.8942 6.30208 39.8942 6.5483V10H39.0561ZM42.7768 10V4.54545H43.6149V10H42.7768ZM43.2029 3.63636C43.0396 3.63636 42.8987 3.58073 42.7804 3.46946C42.6644 3.35819 42.6064 3.22443 42.6064 3.06818C42.6064 2.91193 42.6644 2.77817 42.7804 2.6669C42.8987 2.55563 43.0396 2.5 43.2029 2.5C43.3663 2.5 43.506 2.55563 43.622 2.6669C43.7404 2.77817 43.7995 2.91193 43.7995 3.06818C43.7995 3.22443 43.7404 3.35819 43.622 3.46946C43.506 3.58073 43.3663 3.63636 43.2029 3.63636ZM47.4368 10.1136C46.9112 10.1136 46.4579 9.99763 46.0767 9.76562C45.6979 9.53125 45.4055 9.20455 45.1996 8.78551C44.996 8.36411 44.8942 7.87405 44.8942 7.31534C44.8942 6.75663 44.996 6.2642 45.1996 5.83807C45.4055 5.40956 45.692 5.07576 46.0589 4.83665C46.4283 4.59517 46.8591 4.47443 47.3516 4.47443C47.6357 4.47443 47.9162 4.52178 48.1932 4.61648C48.4702 4.71117 48.7223 4.86506 48.9496 5.07812C49.1768 5.28883 49.358 5.56818 49.4929 5.91619C49.6278 6.2642 49.6953 6.69271 49.6953 7.2017V7.55682H45.4908V6.83239H48.843C48.843 6.52462 48.7815 6.25 48.6584 6.00852C48.5376 5.76705 48.3648 5.57647 48.1399 5.43679C47.9174 5.29711 47.6546 5.22727 47.3516 5.22727C47.0178 5.22727 46.7289 5.31013 46.4851 5.47585C46.2436 5.6392 46.0578 5.85227 45.9276 6.11506C45.7973 6.37784 45.7322 6.65956 45.7322 6.96023V7.44318C45.7322 7.85511 45.8033 8.20431 45.9453 8.49077C46.0897 8.77486 46.2898 8.99148 46.5455 9.14062C46.8011 9.28741 47.0982 9.3608 47.4368 9.3608C47.657 9.3608 47.8558 9.33002 48.0334 9.26847C48.2133 9.20455 48.3684 9.10985 48.4986 8.98438C48.6288 8.85653 48.7294 8.69792 48.8004 8.50852L49.6101 8.7358C49.5249 9.01042 49.3816 9.25189 49.1804 9.46023C48.9792 9.66619 48.7306 9.82718 48.4347 9.94318C48.1387 10.0568 47.8061 10.1136 47.4368 10.1136ZM51.8082 6.71875V10H50.9702V4.54545H51.7798V5.39773H51.8509C51.9787 5.12074 52.1728 4.8982 52.4332 4.73011C52.6937 4.55966 53.0298 4.47443 53.4418 4.47443C53.8111 4.47443 54.1342 4.55019 54.4112 4.7017C54.6882 4.85085 54.9036 5.07812 55.0575 5.38352C55.2114 5.68655 55.2884 6.07008 55.2884 6.53409V10H54.4503V6.59091C54.4503 6.16241 54.339 5.8286 54.1165 5.58949C53.8939 5.34801 53.5885 5.22727 53.2003 5.22727C52.9328 5.22727 52.6937 5.28527 52.483 5.40128C52.2746 5.51728 52.1101 5.68655 51.9893 5.90909C51.8686 6.13163 51.8082 6.40152 51.8082 6.71875ZM58.0556 10L56.3936 4.54545H57.2743L58.4533 8.72159H58.5101L59.6749 4.54545H60.5698L61.7203 8.70739H61.7772L62.9561 4.54545H63.8368L62.1749 10H61.351L60.1578 5.80966H60.0726L58.8794 10H58.0556ZM66.9751 10.1136C66.4827 10.1136 66.0507 9.99645 65.679 9.76207C65.3097 9.5277 65.0208 9.19981 64.8125 8.77841C64.6065 8.35701 64.5036 7.86458 64.5036 7.30114C64.5036 6.73295 64.6065 6.23698 64.8125 5.81321C65.0208 5.38944 65.3097 5.06037 65.679 4.82599C66.0507 4.59162 66.4827 4.47443 66.9751 4.47443C67.4676 4.47443 67.8984 4.59162 68.2678 4.82599C68.6394 5.06037 68.9283 5.38944 69.1342 5.81321C69.3426 6.23698 69.4467 6.73295 69.4467 7.30114C69.4467 7.86458 69.3426 8.35701 69.1342 8.77841C68.9283 9.19981 68.6394 9.5277 68.2678 9.76207C67.8984 9.99645 67.4676 10.1136 66.9751 10.1136ZM66.9751 9.3608C67.3492 9.3608 67.657 9.26491 67.8984 9.07315C68.1399 8.88139 68.3187 8.62926 68.4347 8.31676C68.5507 8.00426 68.6087 7.66572 68.6087 7.30114C68.6087 6.93655 68.5507 6.59683 68.4347 6.28196C68.3187 5.96709 68.1399 5.71259 67.8984 5.51847C67.657 5.32434 67.3492 5.22727 66.9751 5.22727C66.6011 5.22727 66.2933 5.32434 66.0518 5.51847C65.8104 5.71259 65.6316 5.96709 65.5156 6.28196C65.3996 6.59683 65.3416 6.93655 65.3416 7.30114C65.3416 7.66572 65.3996 8.00426 65.5156 8.31676C65.6316 8.62926 65.8104 8.88139 66.0518 9.07315C66.2933 9.26491 66.6011 9.3608 66.9751 9.3608ZM71.5641 6.71875V10H70.726V2.72727H71.5641V5.39773H71.6351C71.763 5.116 71.9547 4.89228 72.2104 4.72656C72.4685 4.55848 72.8117 4.47443 73.2402 4.47443C73.6119 4.47443 73.9374 4.54901 74.2168 4.69815C74.4962 4.84493 74.7128 5.07102 74.8667 5.37642C75.0229 5.67945 75.101 6.06534 75.101 6.53409V10H74.263V6.59091C74.263 6.15767 74.1505 5.82268 73.9256 5.58594C73.7031 5.34683 73.3941 5.22727 72.9988 5.22727C72.7241 5.22727 72.4779 5.28527 72.2601 5.40128C72.0447 5.51728 71.8742 5.68655 71.7488 5.90909C71.6257 6.13163 71.5641 6.40152 71.5641 6.71875ZM77.4723 6.71875V10H76.6342V4.54545H77.4439V5.39773H77.5149C77.6428 5.12074 77.8369 4.8982 78.0973 4.73011C78.3577 4.55966 78.6939 4.47443 79.1058 4.47443C79.4751 4.47443 79.7983 4.55019 80.0753 4.7017C80.3523 4.85085 80.5677 5.07812 80.7216 5.38352C80.8755 5.68655 80.9524 6.07008 80.9524 6.53409V10H80.1143V6.59091C80.1143 6.16241 80.0031 5.8286 79.7805 5.58949C79.558 5.34801 79.2526 5.22727 78.8643 5.22727C78.5968 5.22727 78.3577 5.28527 78.147 5.40128C77.9387 5.51728 77.7741 5.68655 77.6534 5.90909C77.5327 6.13163 77.4723 6.40152 77.4723 6.71875ZM85.9213 7.76989V4.54545H86.7594V10H85.9213V9.0767H85.8645C85.7367 9.35369 85.5378 9.58925 85.2679 9.78338C84.998 9.97514 84.6571 10.071 84.2452 10.071C83.9043 10.071 83.6013 9.99645 83.3361 9.8473C83.071 9.69579 82.8626 9.46851 82.7111 9.16548C82.5596 8.86009 82.4838 8.47538 82.4838 8.01136V4.54545H83.3219V7.95455C83.3219 8.35227 83.4332 8.66951 83.6557 8.90625C83.8806 9.14299 84.1671 9.26136 84.5151 9.26136C84.7234 9.26136 84.9353 9.2081 85.1507 9.10156C85.3685 8.99503 85.5508 8.83168 85.6976 8.61151C85.8468 8.39134 85.9213 8.1108 85.9213 7.76989ZM89.1325 6.71875V10H88.2944V4.54545H89.104V5.39773H89.1751C89.3029 5.12074 89.497 4.8982 89.7575 4.73011C90.0179 4.55966 90.354 4.47443 90.766 4.47443C91.1353 4.47443 91.4585 4.55019 91.7354 4.7017C92.0124 4.85085 92.2279 5.07812 92.3817 5.38352C92.5356 5.68655 92.6126 6.07008 92.6126 6.53409V10H91.7745V6.59091C91.7745 6.16241 91.6632 5.8286 91.4407 5.58949C91.2182 5.34801 90.9128 5.22727 90.5245 5.22727C90.257 5.22727 90.0179 5.28527 89.8072 5.40128C89.5988 5.51728 89.4343 5.68655 89.3136 5.90909C89.1928 6.13163 89.1325 6.40152 89.1325 6.71875ZM96.3457 12.1591C95.9409 12.1591 95.5929 12.107 95.3017 12.0028C95.0105 11.901 94.7678 11.7661 94.5737 11.598C94.3819 11.4323 94.2292 11.2547 94.1156 11.0653L94.7832 10.5966C94.859 10.696 94.9548 10.8097 95.0708 10.9375C95.1868 11.0677 95.3455 11.1802 95.5467 11.2749C95.7503 11.3719 96.0166 11.4205 96.3457 11.4205C96.786 11.4205 97.1494 11.3139 97.4359 11.1009C97.7224 10.8878 97.8656 10.554 97.8656 10.0994V8.99148H97.7946C97.733 9.09091 97.6454 9.21402 97.5318 9.3608C97.4205 9.50521 97.2595 9.63423 97.0488 9.74787C96.8405 9.85914 96.5588 9.91477 96.2037 9.91477C95.7633 9.91477 95.368 9.81061 95.0176 9.60227C94.6696 9.39394 94.3938 9.09091 94.1902 8.69318C93.9889 8.29545 93.8883 7.8125 93.8883 7.24432C93.8883 6.68561 93.9866 6.1991 94.1831 5.7848C94.3796 5.36813 94.653 5.04616 95.0034 4.81889C95.3538 4.58925 95.7586 4.47443 96.2179 4.47443C96.573 4.47443 96.8547 4.53362 97.063 4.65199C97.2737 4.76799 97.4347 4.90057 97.546 5.04972C97.6596 5.1965 97.7472 5.31723 97.8088 5.41193H97.894V4.54545H98.7037V10.1562C98.7037 10.625 98.5971 11.0062 98.3841 11.2997C98.1734 11.5956 97.8893 11.8123 97.5318 11.9496C97.1767 12.0893 96.7813 12.1591 96.3457 12.1591ZM96.3173 9.16193C96.6535 9.16193 96.9376 9.08499 97.1696 8.93111C97.4016 8.77723 97.5779 8.55587 97.6987 8.26705C97.8194 7.97822 97.8798 7.63258 97.8798 7.23011C97.8798 6.83712 97.8206 6.49029 97.7022 6.18963C97.5839 5.88897 97.4087 5.65341 97.1767 5.48295C96.9447 5.3125 96.6582 5.22727 96.3173 5.22727C95.9622 5.22727 95.6663 5.31723 95.4295 5.49716C95.1951 5.67708 95.0188 5.91856 94.9004 6.22159C94.7844 6.52462 94.7264 6.8608 94.7264 7.23011C94.7264 7.6089 94.7856 7.94389 94.9039 8.23509C95.0247 8.52391 95.2022 8.75118 95.4366 8.9169C95.6734 9.08026 95.9669 9.16193 96.3173 9.16193ZM27.8807 22V14.7273H28.7614V21.2188H32.142V22H27.8807ZM35.608 22.1136C35.1155 22.1136 34.6835 21.9964 34.3118 21.7621C33.9425 21.5277 33.6536 21.1998 33.4453 20.7784C33.2393 20.357 33.1364 19.8646 33.1364 19.3011C33.1364 18.733 33.2393 18.237 33.4453 17.8132C33.6536 17.3894 33.9425 17.0604 34.3118 16.826C34.6835 16.5916 35.1155 16.4744 35.608 16.4744C36.1004 16.4744 36.5313 16.5916 36.9006 16.826C37.2723 17.0604 37.5611 17.3894 37.767 17.8132C37.9754 18.237 38.0795 18.733 38.0795 19.3011C38.0795 19.8646 37.9754 20.357 37.767 20.7784C37.5611 21.1998 37.2723 21.5277 36.9006 21.7621C36.5313 21.9964 36.1004 22.1136 35.608 22.1136ZM35.608 21.3608C35.982 21.3608 36.2898 21.2649 36.5312 21.0732C36.7727 20.8814 36.9515 20.6293 37.0675 20.3168C37.1835 20.0043 37.2415 19.6657 37.2415 19.3011C37.2415 18.9366 37.1835 18.5968 37.0675 18.282C36.9515 17.9671 36.7727 17.7126 36.5312 17.5185C36.2898 17.3243 35.982 17.2273 35.608 17.2273C35.2339 17.2273 34.9261 17.3243 34.6847 17.5185C34.4432 17.7126 34.2644 17.9671 34.1484 18.282C34.0324 18.5968 33.9744 18.9366 33.9744 19.3011C33.9744 19.6657 34.0324 20.0043 34.1484 20.3168C34.2644 20.6293 34.4432 20.8814 34.6847 21.0732C34.9261 21.2649 35.2339 21.3608 35.608 21.3608ZM39.3588 22V16.5455H40.1685V17.3693H40.2253C40.3248 17.0994 40.5047 16.8804 40.7651 16.7124C41.0255 16.5443 41.3191 16.4602 41.6458 16.4602C41.7073 16.4602 41.7843 16.4614 41.8766 16.4638C41.9689 16.4661 42.0388 16.4697 42.0861 16.4744V17.3267C42.0577 17.3196 41.9926 17.3089 41.8908 17.2947C41.7914 17.2782 41.686 17.2699 41.5748 17.2699C41.3096 17.2699 41.0729 17.3255 40.8645 17.4368C40.6586 17.5457 40.4952 17.6972 40.3745 17.8913C40.2561 18.0831 40.1969 18.3021 40.1969 18.5483V22H39.3588ZM45.2005 22.1136C44.6749 22.1136 44.2215 21.9976 43.8404 21.7656C43.4616 21.5312 43.1692 21.2045 42.9632 20.7855C42.7596 20.3641 42.6578 19.8741 42.6578 19.3153C42.6578 18.7566 42.7596 18.2642 42.9632 17.8381C43.1692 17.4096 43.4557 17.0758 43.8226 16.8366C44.1919 16.5952 44.6228 16.4744 45.1152 16.4744C45.3993 16.4744 45.6799 16.5218 45.9569 16.6165C46.2338 16.7112 46.486 16.8651 46.7132 17.0781C46.9405 17.2888 47.1216 17.5682 47.2566 17.9162C47.3915 18.2642 47.459 18.6927 47.459 19.2017V19.5568H43.2544V18.8324H46.6067C46.6067 18.5246 46.5452 18.25 46.4221 18.0085C46.3013 17.767 46.1285 17.5765 45.9036 17.4368C45.681 17.2971 45.4183 17.2273 45.1152 17.2273C44.7814 17.2273 44.4926 17.3101 44.2488 17.4759C44.0073 17.6392 43.8214 17.8523 43.6912 18.1151C43.561 18.3778 43.4959 18.6596 43.4959 18.9602V19.4432C43.4959 19.8551 43.5669 20.2043 43.709 20.4908C43.8534 20.7749 44.0534 20.9915 44.3091 21.1406C44.5648 21.2874 44.8619 21.3608 45.2005 21.3608C45.4206 21.3608 45.6195 21.33 45.7971 21.2685C45.977 21.2045 46.132 21.1098 46.2623 20.9844C46.3925 20.8565 46.4931 20.6979 46.5641 20.5085L47.3738 20.7358C47.2885 21.0104 47.1453 21.2519 46.9441 21.4602C46.7428 21.6662 46.4943 21.8272 46.1983 21.9432C45.9024 22.0568 45.5698 22.1136 45.2005 22.1136ZM49.5719 18.7188V22H48.7338V16.5455H49.5435V17.3977H49.6145C49.7424 17.1207 49.9365 16.8982 50.1969 16.7301C50.4573 16.5597 50.7935 16.4744 51.2054 16.4744C51.5748 16.4744 51.8979 16.5502 52.1749 16.7017C52.4519 16.8509 52.6673 17.0781 52.8212 17.3835C52.9751 17.6866 53.052 18.0701 53.052 18.5341V22H52.214V18.5909C52.214 18.1624 52.1027 17.8286 51.8801 17.5895C51.6576 17.348 51.3522 17.2273 50.964 17.2273C50.6964 17.2273 50.4573 17.2853 50.2466 17.4013C50.0383 17.5173 49.8738 17.6866 49.753 17.9091C49.6323 18.1316 49.5719 18.4015 49.5719 18.7188ZM54.4272 22V21.3608L57.5238 17.3835V17.3267H54.5266V16.5455H58.6033V17.2131L55.592 21.1619V21.2188H58.7028V22H54.4272Z" fill="black"/>
<defs>
<clipPath id="clip0_1_13">
<rect width="22" height="20" fill="white" transform="translate(0 2)"/>
</clipPath>
</defs>
</svg>
