<svg width="97" height="24" viewBox="0 0 97 24" fill="none" xmlns="http://www.w3.org/2000/svg">
<g clip-path="url(#clip0_1_13)">
<path d="M8.6689 18.6261H13.3229V12.9848C13.3229 12.5795 13.0689 12.3202 12.6592 12.3202H9.34898C8.93929 12.3202 8.6689 12.5795 8.6689 12.9848V18.6261ZM5.44879 20.6848H16.543C18.1244 20.6848 19.0831 19.7446 19.0831 18.2775V9.18338L16.1743 7.19757V17.0942C16.1743 17.5481 15.9121 17.8075 15.4615 17.8075H6.53035C6.0797 17.8075 5.8175 17.5481 5.8175 17.0942V7.19757L2.90875 9.18338V18.2775C2.90875 19.7446 3.85922 20.6848 5.44879 20.6848ZM0 10.9422C0 11.7528 0.573557 12.2958 1.44209 12.2958C1.8108 12.2958 2.21229 12.1256 2.54004 11.8501L10.3896 5.34144C10.7911 5.00912 11.2171 5.00912 11.6268 5.34144L19.4518 11.8501C19.7877 12.1256 20.1892 12.2958 20.5579 12.2958C21.4183 12.2958 22 11.7609 22 10.9422C22 10.5289 21.7788 10.0912 21.4101 9.78318L12.8886 2.69909C11.7579 1.76697 10.2585 1.76697 9.12775 2.69909L0.589944 9.79129C0.221229 10.0993 0 10.537 0 10.9422ZM15.5926 5.78723L19.0831 8.66464V3.98784C19.0831 3.58257 18.8209 3.3232 18.4112 3.3232H16.2726C15.8629 3.3232 15.5926 3.58257 15.5926 3.98784V5.78723Z" fill="black" fill-opacity="0.85"/>
</g>
<path d="M24.8807 10V2.72727H29.2415V3.50852H25.7614V5.96591H28.9148V6.74716H25.7614V10H24.8807ZM32.5227 10.1136C31.9972 10.1136 31.5438 9.99763 31.1626 9.76562C30.7839 9.53125 30.4915 9.20455 30.2855 8.78551C30.0819 8.36411 29.9801 7.87405 29.9801 7.31534C29.9801 6.75663 30.0819 6.2642 30.2855 5.83807C30.4915 5.40956 30.7779 5.07576 31.1449 4.83665C31.5142 4.59517 31.9451 4.47443 32.4375 4.47443C32.7216 4.47443 33.0021 4.52178 33.2791 4.61648C33.5561 4.71117 33.8082 4.86506 34.0355 5.07812C34.2628 5.28883 34.4439 5.56818 34.5788 5.91619C34.7138 6.2642 34.7812 6.69271 34.7812 7.2017V7.55682H30.5767V6.83239H33.929C33.929 6.52462 33.8674 6.25 33.7443 6.00852C33.6236 5.76705 33.4508 5.57647 33.2259 5.43679C33.0033 5.29711 32.7405 5.22727 32.4375 5.22727C32.1037 5.22727 31.8149 5.31013 31.571 5.47585C31.3295 5.6392 31.1437 5.85227 31.0135 6.11506C30.8833 6.37784 30.8182 6.65956 30.8182 6.96023V7.44318C30.8182 7.85511 30.8892 8.20431 31.0312 8.49077C31.1757 8.77486 31.3757 8.99148 31.6314 9.14062C31.8871 9.28741 32.1842 9.3608 32.5227 9.3608C32.7429 9.3608 32.9418 9.33002 33.1193 9.26847C33.2992 9.20455 33.4543 9.10985 33.5845 8.98438C33.7147 8.85653 33.8153 8.69792 33.8864 8.50852L34.696 8.7358C34.6108 9.01042 34.4676 9.25189 34.2663 9.46023C34.0651 9.66619 33.8165 9.82718 33.5206 9.94318C33.2247 10.0568 32.892 10.1136 32.5227 10.1136ZM36.0561 10V4.54545H36.8658V5.36932H36.9226C37.022 5.09943 37.2019 4.88045 37.4624 4.71236C37.7228 4.54427 38.0163 4.46023 38.343 4.46023C38.4046 4.46023 38.4815 4.46141 38.5739 4.46378C38.6662 4.46615 38.736 4.4697 38.7834 4.47443V5.3267C38.755 5.3196 38.6899 5.30895 38.5881 5.29474C38.4886 5.27817 38.3833 5.26989 38.272 5.26989C38.0069 5.26989 37.7701 5.32552 37.5618 5.43679C37.3558 5.54569 37.1925 5.69721 37.0717 5.89134C36.9534 6.0831 36.8942 6.30208 36.8942 6.5483V10H36.0561ZM39.7768 10V4.54545H40.6149V10H39.7768ZM40.2029 3.63636C40.0396 3.63636 39.8987 3.58073 39.7804 3.46946C39.6644 3.35819 39.6064 3.22443 39.6064 3.06818C39.6064 2.91193 39.6644 2.77817 39.7804 2.6669C39.8987 2.55563 40.0396 2.5 40.2029 2.5C40.3663 2.5 40.506 2.55563 40.622 2.6669C40.7404 2.77817 40.7995 2.91193 40.7995 3.06818C40.7995 3.22443 40.7404 3.35819 40.622 3.46946C40.506 3.58073 40.3663 3.63636 40.2029 3.63636ZM44.4368 10.1136C43.9112 10.1136 43.4579 9.99763 43.0767 9.76562C42.6979 9.53125 42.4055 9.20455 42.1996 8.78551C41.996 8.36411 41.8942 7.87405 41.8942 7.31534C41.8942 6.75663 41.996 6.2642 42.1996 5.83807C42.4055 5.40956 42.692 5.07576 43.0589 4.83665C43.4283 4.59517 43.8591 4.47443 44.3516 4.47443C44.6357 4.47443 44.9162 4.52178 45.1932 4.61648C45.4702 4.71117 45.7223 4.86506 45.9496 5.07812C46.1768 5.28883 46.358 5.56818 46.4929 5.91619C46.6278 6.2642 46.6953 6.69271 46.6953 7.2017V7.55682H42.4908V6.83239H45.843C45.843 6.52462 45.7815 6.25 45.6584 6.00852C45.5376 5.76705 45.3648 5.57647 45.1399 5.43679C44.9174 5.29711 44.6546 5.22727 44.3516 5.22727C44.0178 5.22727 43.7289 5.31013 43.4851 5.47585C43.2436 5.6392 43.0578 5.85227 42.9276 6.11506C42.7973 6.37784 42.7322 6.65956 42.7322 6.96023V7.44318C42.7322 7.85511 42.8033 8.20431 42.9453 8.49077C43.0897 8.77486 43.2898 8.99148 43.5455 9.14062C43.8011 9.28741 44.0982 9.3608 44.4368 9.3608C44.657 9.3608 44.8558 9.33002 45.0334 9.26847C45.2133 9.20455 45.3684 9.10985 45.4986 8.98438C45.6288 8.85653 45.7294 8.69792 45.8004 8.50852L46.6101 8.7358C46.5249 9.01042 46.3816 9.25189 46.1804 9.46023C45.9792 9.66619 45.7306 9.82718 45.4347 9.94318C45.1387 10.0568 44.8061 10.1136 44.4368 10.1136ZM48.8082 6.71875V10H47.9702V4.54545H48.7798V5.39773H48.8509C48.9787 5.12074 49.1728 4.8982 49.4332 4.73011C49.6937 4.55966 50.0298 4.47443 50.4418 4.47443C50.8111 4.47443 51.1342 4.55019 51.4112 4.7017C51.6882 4.85085 51.9036 5.07812 52.0575 5.38352C52.2114 5.68655 52.2884 6.07008 52.2884 6.53409V10H51.4503V6.59091C51.4503 6.16241 51.339 5.8286 51.1165 5.58949C50.8939 5.34801 50.5885 5.22727 50.2003 5.22727C49.9328 5.22727 49.6937 5.28527 49.483 5.40128C49.2746 5.51728 49.1101 5.68655 48.9893 5.90909C48.8686 6.13163 48.8082 6.40152 48.8082 6.71875ZM55.0556 10L53.3936 4.54545H54.2743L55.4533 8.72159H55.5101L56.6749 4.54545H57.5698L58.7203 8.70739H58.7772L59.9561 4.54545H60.8368L59.1749 10H58.351L57.1578 5.80966H57.0726L55.8794 10H55.0556ZM63.9751 10.1136C63.4827 10.1136 63.0507 9.99645 62.679 9.76207C62.3097 9.5277 62.0208 9.19981 61.8125 8.77841C61.6065 8.35701 61.5036 7.86458 61.5036 7.30114C61.5036 6.73295 61.6065 6.23698 61.8125 5.81321C62.0208 5.38944 62.3097 5.06037 62.679 4.82599C63.0507 4.59162 63.4827 4.47443 63.9751 4.47443C64.4676 4.47443 64.8984 4.59162 65.2678 4.82599C65.6394 5.06037 65.9283 5.38944 66.1342 5.81321C66.3426 6.23698 66.4467 6.73295 66.4467 7.30114C66.4467 7.86458 66.3426 8.35701 66.1342 8.77841C65.9283 9.19981 65.6394 9.5277 65.2678 9.76207C64.8984 9.99645 64.4676 10.1136 63.9751 10.1136ZM63.9751 9.3608C64.3492 9.3608 64.657 9.26491 64.8984 9.07315C65.1399 8.88139 65.3187 8.62926 65.4347 8.31676C65.5507 8.00426 65.6087 7.66572 65.6087 7.30114C65.6087 6.93655 65.5507 6.59683 65.4347 6.28196C65.3187 5.96709 65.1399 5.71259 64.8984 5.51847C64.657 5.32434 64.3492 5.22727 63.9751 5.22727C63.6011 5.22727 63.2933 5.32434 63.0518 5.51847C62.8104 5.71259 62.6316 5.96709 62.5156 6.28196C62.3996 6.59683 62.3416 6.93655 62.3416 7.30114C62.3416 7.66572 62.3996 8.00426 62.5156 8.31676C62.6316 8.62926 62.8104 8.88139 63.0518 9.07315C63.2933 9.26491 63.6011 9.3608 63.9751 9.3608ZM68.5641 6.71875V10H67.726V2.72727H68.5641V5.39773H68.6351C68.763 5.116 68.9547 4.89228 69.2104 4.72656C69.4685 4.55848 69.8117 4.47443 70.2402 4.47443C70.6119 4.47443 70.9374 4.54901 71.2168 4.69815C71.4962 4.84493 71.7128 5.07102 71.8667 5.37642C72.0229 5.67945 72.101 6.06534 72.101 6.53409V10H71.263V6.59091C71.263 6.15767 71.1505 5.82268 70.9256 5.58594C70.7031 5.34683 70.3941 5.22727 69.9988 5.22727C69.7241 5.22727 69.4779 5.28527 69.2601 5.40128C69.0447 5.51728 68.8742 5.68655 68.7488 5.90909C68.6257 6.13163 68.5641 6.40152 68.5641 6.71875ZM74.4723 6.71875V10H73.6342V4.54545H74.4439V5.39773H74.5149C74.6428 5.12074 74.8369 4.8982 75.0973 4.73011C75.3577 4.55966 75.6939 4.47443 76.1058 4.47443C76.4751 4.47443 76.7983 4.55019 77.0753 4.7017C77.3523 4.85085 77.5677 5.07812 77.7216 5.38352C77.8755 5.68655 77.9524 6.07008 77.9524 6.53409V10H77.1143V6.59091C77.1143 6.16241 77.0031 5.8286 76.7805 5.58949C76.558 5.34801 76.2526 5.22727 75.8643 5.22727C75.5968 5.22727 75.3577 5.28527 75.147 5.40128C74.9387 5.51728 74.7741 5.68655 74.6534 5.90909C74.5327 6.13163 74.4723 6.40152 74.4723 6.71875ZM82.9213 7.76989V4.54545H83.7594V10H82.9213V9.0767H82.8645C82.7367 9.35369 82.5378 9.58925 82.2679 9.78338C81.998 9.97514 81.6571 10.071 81.2452 10.071C80.9043 10.071 80.6013 9.99645 80.3361 9.8473C80.071 9.69579 79.8626 9.46851 79.7111 9.16548C79.5596 8.86009 79.4838 8.47538 79.4838 8.01136V4.54545H80.3219V7.95455C80.3219 8.35227 80.4332 8.66951 80.6557 8.90625C80.8806 9.14299 81.1671 9.26136 81.5151 9.26136C81.7234 9.26136 81.9353 9.2081 82.1507 9.10156C82.3685 8.99503 82.5508 8.83168 82.6976 8.61151C82.8468 8.39134 82.9213 8.1108 82.9213 7.76989ZM86.1325 6.71875V10H85.2944V4.54545H86.104V5.39773H86.1751C86.3029 5.12074 86.497 4.8982 86.7575 4.73011C87.0179 4.55966 87.354 4.47443 87.766 4.47443C88.1353 4.47443 88.4585 4.55019 88.7354 4.7017C89.0124 4.85085 89.2279 5.07812 89.3817 5.38352C89.5356 5.68655 89.6126 6.07008 89.6126 6.53409V10H88.7745V6.59091C88.7745 6.16241 88.6632 5.8286 88.4407 5.58949C88.2182 5.34801 87.9128 5.22727 87.5245 5.22727C87.257 5.22727 87.0179 5.28527 86.8072 5.40128C86.5988 5.51728 86.4343 5.68655 86.3136 5.90909C86.1928 6.13163 86.1325 6.40152 86.1325 6.71875ZM93.3457 12.1591C92.9409 12.1591 92.5929 12.107 92.3017 12.0028C92.0105 11.901 91.7678 11.7661 91.5737 11.598C91.3819 11.4323 91.2292 11.2547 91.1156 11.0653L91.7832 10.5966C91.859 10.696 91.9548 10.8097 92.0708 10.9375C92.1868 11.0677 92.3455 11.1802 92.5467 11.2749C92.7503 11.3719 93.0166 11.4205 93.3457 11.4205C93.786 11.4205 94.1494 11.3139 94.4359 11.1009C94.7224 10.8878 94.8656 10.554 94.8656 10.0994V8.99148H94.7946C94.733 9.09091 94.6454 9.21402 94.5318 9.3608C94.4205 9.50521 94.2595 9.63423 94.0488 9.74787C93.8405 9.85914 93.5588 9.91477 93.2037 9.91477C92.7633 9.91477 92.368 9.81061 92.0176 9.60227C91.6696 9.39394 91.3938 9.09091 91.1902 8.69318C90.9889 8.29545 90.8883 7.8125 90.8883 7.24432C90.8883 6.68561 90.9866 6.1991 91.1831 5.7848C91.3796 5.36813 91.653 5.04616 92.0034 4.81889C92.3538 4.58925 92.7586 4.47443 93.2179 4.47443C93.573 4.47443 93.8547 4.53362 94.063 4.65199C94.2737 4.76799 94.4347 4.90057 94.546 5.04972C94.6596 5.1965 94.7472 5.31723 94.8088 5.41193H94.894V4.54545H95.7037V10.1562C95.7037 10.625 95.5971 11.0062 95.3841 11.2997C95.1734 11.5956 94.8893 11.8123 94.5318 11.9496C94.1767 12.0893 93.7813 12.1591 93.3457 12.1591ZM93.3173 9.16193C93.6535 9.16193 93.9376 9.08499 94.1696 8.93111C94.4016 8.77723 94.5779 8.55587 94.6987 8.26705C94.8194 7.97822 94.8798 7.63258 94.8798 7.23011C94.8798 6.83712 94.8206 6.49029 94.7022 6.18963C94.5839 5.88897 94.4087 5.65341 94.1767 5.48295C93.9447 5.3125 93.6582 5.22727 93.3173 5.22727C92.9622 5.22727 92.6663 5.31723 92.4295 5.49716C92.1951 5.67708 92.0188 5.91856 91.9004 6.22159C91.7844 6.52462 91.7264 6.8608 91.7264 7.23011C91.7264 7.6089 91.7856 7.94389 91.9039 8.23509C92.0247 8.52391 92.2022 8.75118 92.4366 8.9169C92.6734 9.08026 92.9669 9.16193 93.3173 9.16193ZM24.8807 22V14.7273H25.7614V21.2188H29.142V22H24.8807ZM32.608 22.1136C32.1155 22.1136 31.6835 21.9964 31.3118 21.7621C30.9425 21.5277 30.6536 21.1998 30.4453 20.7784C30.2393 20.357 30.1364 19.8646 30.1364 19.3011C30.1364 18.733 30.2393 18.237 30.4453 17.8132C30.6536 17.3894 30.9425 17.0604 31.3118 16.826C31.6835 16.5916 32.1155 16.4744 32.608 16.4744C33.1004 16.4744 33.5313 16.5916 33.9006 16.826C34.2723 17.0604 34.5611 17.3894 34.767 17.8132C34.9754 18.237 35.0795 18.733 35.0795 19.3011C35.0795 19.8646 34.9754 20.357 34.767 20.7784C34.5611 21.1998 34.2723 21.5277 33.9006 21.7621C33.5313 21.9964 33.1004 22.1136 32.608 22.1136ZM32.608 21.3608C32.982 21.3608 33.2898 21.2649 33.5312 21.0732C33.7727 20.8814 33.9515 20.6293 34.0675 20.3168C34.1835 20.0043 34.2415 19.6657 34.2415 19.3011C34.2415 18.9366 34.1835 18.5968 34.0675 18.282C33.9515 17.9671 33.7727 17.7126 33.5312 17.5185C33.2898 17.3243 32.982 17.2273 32.608 17.2273C32.2339 17.2273 31.9261 17.3243 31.6847 17.5185C31.4432 17.7126 31.2644 17.9671 31.1484 18.282C31.0324 18.5968 30.9744 18.9366 30.9744 19.3011C30.9744 19.6657 31.0324 20.0043 31.1484 20.3168C31.2644 20.6293 31.4432 20.8814 31.6847 21.0732C31.9261 21.2649 32.2339 21.3608 32.608 21.3608ZM36.3588 22V16.5455H37.1685V17.3693H37.2253C37.3248 17.0994 37.5047 16.8804 37.7651 16.7124C38.0255 16.5443 38.3191 16.4602 38.6458 16.4602C38.7073 16.4602 38.7843 16.4614 38.8766 16.4638C38.9689 16.4661 39.0388 16.4697 39.0861 16.4744V17.3267C39.0577 17.3196 38.9926 17.3089 38.8908 17.2947C38.7914 17.2782 38.686 17.2699 38.5748 17.2699C38.3096 17.2699 38.0729 17.3255 37.8645 17.4368C37.6586 17.5457 37.4952 17.6972 37.3745 17.8913C37.2561 18.0831 37.1969 18.3021 37.1969 18.5483V22H36.3588ZM42.2005 22.1136C41.6749 22.1136 41.2215 21.9976 40.8404 21.7656C40.4616 21.5312 40.1692 21.2045 39.9632 20.7855C39.7596 20.3641 39.6578 19.8741 39.6578 19.3153C39.6578 18.7566 39.7596 18.2642 39.9632 17.8381C40.1692 17.4096 40.4557 17.0758 40.8226 16.8366C41.1919 16.5952 41.6228 16.4744 42.1152 16.4744C42.3993 16.4744 42.6799 16.5218 42.9569 16.6165C43.2338 16.7112 43.486 16.8651 43.7132 17.0781C43.9405 17.2888 44.1216 17.5682 44.2566 17.9162C44.3915 18.2642 44.459 18.6927 44.459 19.2017V19.5568H40.2544V18.8324H43.6067C43.6067 18.5246 43.5452 18.25 43.4221 18.0085C43.3013 17.767 43.1285 17.5765 42.9036 17.4368C42.681 17.2971 42.4183 17.2273 42.1152 17.2273C41.7814 17.2273 41.4926 17.3101 41.2488 17.4759C41.0073 17.6392 40.8214 17.8523 40.6912 18.1151C40.561 18.3778 40.4959 18.6596 40.4959 18.9602V19.4432C40.4959 19.8551 40.5669 20.2043 40.709 20.4908C40.8534 20.7749 41.0534 20.9915 41.3091 21.1406C41.5648 21.2874 41.8619 21.3608 42.2005 21.3608C42.4206 21.3608 42.6195 21.33 42.7971 21.2685C42.977 21.2045 43.132 21.1098 43.2623 20.9844C43.3925 20.8565 43.4931 20.6979 43.5641 20.5085L44.3738 20.7358C44.2885 21.0104 44.1453 21.2519 43.9441 21.4602C43.7428 21.6662 43.4943 21.8272 43.1983 21.9432C42.9024 22.0568 42.5698 22.1136 42.2005 22.1136ZM46.5719 18.7188V22H45.7338V16.5455H46.5435V17.3977H46.6145C46.7424 17.1207 46.9365 16.8982 47.1969 16.7301C47.4573 16.5597 47.7935 16.4744 48.2054 16.4744C48.5748 16.4744 48.8979 16.5502 49.1749 16.7017C49.4519 16.8509 49.6673 17.0781 49.8212 17.3835C49.9751 17.6866 50.052 18.0701 50.052 18.5341V22H49.214V18.5909C49.214 18.1624 49.1027 17.8286 48.8801 17.5895C48.6576 17.348 48.3522 17.2273 47.964 17.2273C47.6964 17.2273 47.4573 17.2853 47.2466 17.4013C47.0383 17.5173 46.8738 17.6866 46.753 17.9091C46.6323 18.1316 46.5719 18.4015 46.5719 18.7188ZM51.4272 22V21.3608L54.5238 17.3835V17.3267H51.5266V16.5455H55.6033V17.2131L52.592 21.1619V21.2188H55.7028V22H51.4272Z" fill="black"/>
<defs>
<clipPath id="clip0_1_13">
<rect width="22" height="20" fill="white" transform="translate(0 2)"/>
</clipPath>
</defs>
</svg>
